<svg width="423" height="523" viewBox="0 0 423 523" fill="none" xmlns="http://www.w3.org/2000/svg">
<path fill-rule="evenodd" clip-rule="evenodd" d="M33.3958 760.675C33.1338 760.938 31.587 757.662 29.9586 753.397C28.3302 749.132 25.1676 742.26 22.9305 738.125L18.863 730.608L12.4902 729.92C8.98514 729.542 0.795013 728.662 -5.71017 727.966C-12.2153 727.269 -23.5859 725.509 -30.9781 724.055C-38.3704 722.601 -51.3318 719.465 -59.7812 717.087C-68.2307 714.709 -81.0529 710.584 -88.2749 707.92C-95.497 705.256 -110.599 698.552 -121.835 693.021C-133.959 687.054 -148.822 678.634 -158.393 672.311C-167.264 666.451 -179.602 657.601 -185.812 652.645C-192.021 647.689 -205.331 635.381 -215.389 625.295C-225.447 615.209 -237.986 601.392 -243.254 594.591C-248.522 587.79 -256.467 576.673 -260.91 569.886C-265.353 563.099 -272.262 551.539 -276.264 544.197C-280.265 536.855 -285.946 525.231 -288.887 518.366C-291.828 511.501 -296.244 500.078 -298.7 492.981C-301.156 485.885 -304.806 473.717 -306.812 465.941C-308.818 458.165 -311.424 446.246 -312.604 439.453C-313.783 432.66 -315.281 421.604 -315.931 414.882C-316.582 408.161 -317.366 400.554 -317.673 397.978L-318.231 393.294L-329.17 388.174C-335.186 385.358 -343.459 381.954 -347.554 380.611L-355 378.168L-346.479 375.086C-341.792 373.391 -333.361 369.709 -327.743 366.904L-317.528 361.803L-316.239 347.308C-315.53 339.336 -314.156 327.966 -313.187 322.04C-312.218 316.115 -310.293 306.186 -308.91 299.977C-307.526 293.767 -304.637 282.913 -302.489 275.855C-300.341 268.797 -296.38 257.427 -293.686 250.587C-290.992 243.747 -285.243 231.135 -280.911 222.56C-276.579 213.985 -269.55 201.405 -265.291 194.604C-261.033 187.803 -254.157 177.642 -250.012 172.024C-245.868 166.406 -238.315 156.975 -233.23 151.066C-228.144 145.157 -219.386 135.758 -213.768 130.179C-208.15 124.6 -199.44 116.609 -194.414 112.422C-189.387 108.234 -180.162 101.083 -173.913 96.5313C-167.664 91.9793 -156.777 84.8042 -149.72 80.5867C-142.663 76.3691 -131.082 70.0988 -123.986 66.6527C-116.889 63.2067 -107.212 58.8344 -102.481 56.9366C-97.7502 55.0388 -88.315 51.573 -81.5141 49.2348C-74.7133 46.8966 -62.787 43.3447 -55.0113 41.3416C-47.2356 39.3386 -35.1393 36.7011 -28.1305 35.4807C-21.1217 34.2603 -9.33908 32.7546 -1.94684 32.1348C5.44537 31.515 13.0613 30.7811 14.9774 30.5039C18.0082 30.0654 19.0216 28.9923 22.7709 22.2512C25.1412 17.9894 28.412 11.2424 30.0394 7.25787C31.6668 3.27336 33.3611 0.00733402 33.8047 4.68271e-05C34.2482 -0.00724037 34.6111 0.836931 34.6111 1.876C34.6111 2.91506 36.9846 8.60036 39.8856 14.51C42.7866 20.4196 46.149 26.5095 47.3576 28.043C49.4446 30.691 50.2198 30.8663 62.7813 31.5307C70.0558 31.9155 82.2977 33.209 89.9856 34.4052C97.6736 35.6014 110.898 38.2894 119.374 40.3785C127.849 42.4676 141.397 46.3834 149.48 49.0803C157.563 51.7772 170.569 56.812 178.381 60.2688C186.194 63.7256 197.913 69.4614 204.425 73.0152C210.936 76.569 220.995 82.4537 226.778 86.0924C232.561 89.7311 242.643 96.723 249.183 101.63C255.723 106.537 265.642 114.63 271.226 119.613C276.809 124.597 286.155 133.665 291.995 139.764C297.834 145.863 306.708 155.98 311.714 162.245C316.72 168.511 324.816 179.685 329.706 187.077C334.596 194.47 341.393 205.598 344.81 211.808C348.227 218.017 352.69 226.727 354.728 231.162C356.767 235.597 360.272 243.823 362.518 249.441C364.764 255.059 368.374 265.155 370.54 271.877C372.706 278.599 375.672 289.002 377.132 294.995C378.591 300.988 380.74 311.355 381.907 318.033C383.074 324.711 384.547 335.84 385.18 342.763C385.813 349.687 386.569 356.929 386.86 358.858C387.328 361.958 388.289 362.822 395.134 366.303C399.394 368.469 407.406 372.012 412.939 374.175L423 378.109L414.552 381.105C409.906 382.752 401.894 386.214 396.748 388.796C388.27 393.051 387.341 393.822 386.861 397.002C386.57 398.932 385.807 406.238 385.166 413.237C384.526 420.236 382.794 432.574 381.318 440.655C379.843 448.736 376.906 461.638 374.794 469.326C372.681 477.014 368.83 489.175 366.235 496.351C363.641 503.527 358.902 515.18 355.705 522.248C352.508 529.315 346.451 541.245 342.245 548.76C338.038 556.275 331.61 566.879 327.96 572.325C324.31 577.77 317.839 586.841 313.58 592.481C309.322 598.122 301.238 607.83 295.617 614.054C289.997 620.279 280.589 629.821 274.711 635.257C268.833 640.694 259.461 648.783 253.884 653.232C248.307 657.68 239.631 664.149 234.605 667.607C229.578 671.064 220.924 676.643 215.375 680.004C209.825 683.365 199.18 689.163 191.719 692.887C184.259 696.612 172.067 702.125 164.626 705.139C157.185 708.153 144.605 712.568 136.67 714.95C128.735 717.332 116.92 720.468 110.415 721.918C103.91 723.368 92.0555 725.514 84.0718 726.686C76.0882 727.859 64.8333 729.145 59.061 729.545L48.5658 730.273L44.2879 737.598C41.9351 741.626 38.629 748.359 36.9411 752.561C35.2532 756.762 33.6579 760.413 33.3958 760.675ZM16.4604 695.475C18.9348 695.64 19.6188 694.874 22.0937 689.168C23.6431 685.595 25.9011 678.793 27.1117 674.052C28.3223 669.31 30.0159 658.806 30.8752 650.709C31.7346 642.612 32.4428 632.238 32.4492 627.654C32.4555 623.071 32.8741 619.321 33.3795 619.321C33.8849 619.321 34.6367 625.974 35.0502 634.106C35.4637 642.237 36.5338 654.186 37.4282 660.658C38.3226 667.131 40.4616 676.82 42.1816 682.189C43.9016 687.558 45.9259 692.755 46.6802 693.737C47.9051 695.333 49.4864 695.416 61.4919 694.513C68.8842 693.958 80.7386 692.529 87.8352 691.339C94.9317 690.148 107.059 687.514 114.784 685.484C122.51 683.454 134.122 679.887 140.59 677.557C147.057 675.226 156.462 671.545 161.489 669.377C166.515 667.208 176.193 662.496 182.993 658.905C189.794 655.313 201.407 648.415 208.799 643.575C216.191 638.736 227.32 630.702 233.529 625.723C239.739 620.743 251.114 610.371 258.808 602.673C266.502 594.975 276.663 583.845 281.388 577.939C286.113 572.033 294.34 560.663 299.67 552.671C305 544.68 313.054 530.883 317.567 522.013C322.08 513.142 327.959 500.32 330.632 493.519C333.305 486.718 337.245 475.121 339.387 467.749C341.529 460.376 344.47 448.521 345.923 441.405C347.376 434.29 349.362 421.373 350.336 412.702C351.311 404.032 351.831 396.217 351.494 395.337C351.156 394.457 347.046 392.258 342.361 390.451C337.676 388.644 330.299 386.184 325.968 384.984C321.637 383.784 313.219 382.088 307.262 381.215C301.305 380.342 292.439 379.541 287.56 379.435C282.681 379.328 278.689 378.898 278.689 378.479C278.689 378.06 283.407 377.404 289.173 377.022C294.939 376.64 303.536 375.642 308.277 374.805C313.019 373.967 320.034 372.469 323.868 371.475C327.701 370.482 335.36 367.939 340.887 365.823C346.414 363.708 351.205 361.278 351.533 360.424C351.861 359.569 351.552 353.55 350.847 347.048C350.142 340.546 348.847 331.044 347.969 325.934C347.092 320.824 344.973 310.837 343.261 303.74C341.548 296.644 338.38 285.556 336.22 279.1C334.06 272.645 330.582 263.21 328.491 258.133C326.4 253.057 321.618 242.855 317.864 235.463C314.111 228.071 308.303 217.668 304.958 212.345C301.612 207.023 294.863 197.346 289.959 190.841C285.056 184.336 276.669 174.179 271.323 168.271C265.976 162.363 256.858 153.261 251.06 148.044C245.262 142.827 235.157 134.499 228.604 129.537C222.051 124.575 211.406 117.301 204.949 113.371C198.491 109.442 188.026 103.619 181.692 100.43C175.359 97.2415 165.924 92.8631 160.725 90.7004C155.527 88.5378 144.984 84.6299 137.296 82.0164C129.608 79.4028 117.451 75.8522 110.28 74.1262C103.108 72.4001 91.254 70.0394 83.9363 68.8801C76.6186 67.7208 67.2444 66.4866 63.1048 66.1374C58.9651 65.7882 53.5897 65.2576 51.1594 64.9584C46.7439 64.4147 46.739 64.4182 44.4827 69.6631C43.2408 72.5499 41.2549 78.4965 40.0695 82.8779C38.8841 87.2593 37.41 94.9568 36.7938 99.9835C36.1776 105.01 35.3599 115.292 34.9767 122.832C34.5934 130.372 33.8706 136.541 33.3703 136.541C32.87 136.541 32.4555 133.275 32.4492 129.284C32.4428 125.292 31.7194 115.257 30.8416 106.984C29.9637 98.7117 28.2242 87.8667 26.976 82.8844C25.7278 77.902 23.8047 71.7216 22.7024 69.15L20.6982 64.4744L14.483 65.0806C11.0647 65.414 1.97775 66.4192 -5.71017 67.3142C-13.3981 68.2093 -26.2202 70.3663 -34.2039 72.1077C-42.1875 73.849 -53.3161 76.664 -58.9342 78.3632C-64.5523 80.0624 -73.9875 83.233 -79.9013 85.4088C-85.8151 87.5847 -99.363 93.6544 -110.008 98.897C-120.653 104.14 -135.588 112.57 -143.197 117.63C-150.806 122.691 -161.692 130.541 -167.389 135.076C-173.086 139.61 -184.074 149.658 -191.806 157.403C-199.538 165.149 -209.813 176.463 -214.64 182.545C-219.466 188.626 -226.997 199.029 -231.374 205.662C-235.75 212.295 -242.012 222.633 -245.287 228.637C-248.563 234.64 -253.669 245.043 -256.633 251.754C-259.598 258.465 -264.163 270.247 -266.779 277.935C-269.394 285.623 -272.8 297.235 -274.348 303.74C-275.895 310.245 -278.14 321.308 -279.337 328.324C-280.534 335.34 -281.821 345.778 -282.197 351.519L-282.881 361.959L-272.248 365.917C-266.4 368.093 -257.866 370.821 -253.284 371.977C-248.701 373.133 -239.93 374.825 -233.792 375.737C-227.654 376.648 -219.79 377.401 -216.318 377.41C-211.845 377.422 -210.475 377.731 -211.617 378.469C-212.504 379.042 -216.375 379.522 -220.219 379.534C-224.063 379.547 -232.047 380.283 -237.961 381.17C-243.874 382.056 -252.451 383.747 -257.019 384.927C-261.587 386.107 -269.087 388.559 -273.685 390.377C-278.283 392.195 -282.44 394.065 -282.922 394.533C-283.404 395 -283.267 400.407 -282.617 406.549C-281.968 412.69 -280.468 423.521 -279.283 430.618C-278.098 437.714 -275.448 449.954 -273.393 457.816C-271.338 465.679 -267.459 478.259 -264.771 485.772C-262.084 493.285 -255.834 507.672 -250.882 517.742C-245.721 528.238 -237.312 542.922 -231.177 552.15C-225.29 561.004 -215.41 574.296 -209.22 581.688C-203.03 589.08 -192.779 600.08 -186.441 606.131C-180.103 612.183 -169.989 621.104 -163.967 625.955C-157.945 630.807 -146.485 639.076 -138.502 644.331C-130.518 649.586 -115.76 657.937 -105.707 662.888C-95.6534 667.839 -81.1378 674.142 -73.4499 676.894C-65.762 679.647 -52.1385 683.771 -43.1757 686.059C-34.2128 688.348 -19.939 691.197 -11.4563 692.392C-2.97351 693.586 6.14429 694.727 8.80548 694.925C11.4667 695.124 14.9114 695.372 16.4604 695.475ZM-106.632 596.64C-113.22 596.585 -121.755 595.909 -125.599 595.138C-129.443 594.367 -135.733 592.683 -139.577 591.397C-143.421 590.11 -150.053 587.188 -154.316 584.904C-158.579 582.62 -164.75 578.725 -168.03 576.248C-171.31 573.772 -175.433 569.788 -177.194 567.394C-179.523 564.226 -180.089 562.674 -179.271 561.689C-178.382 560.618 -177.436 560.754 -174.722 562.341C-172.838 563.444 -167.667 565.552 -163.232 567.025C-158.797 568.499 -151.781 570.028 -147.641 570.424C-143.209 570.848 -137.24 570.628 -133.125 569.888C-129.281 569.197 -122.738 567.007 -118.585 565.022C-113.227 562.461 -109.083 559.381 -104.313 554.414C-100.189 550.119 -96.3466 544.753 -94.3688 540.526C-92.5959 536.738 -90.3204 530.055 -89.3121 525.675C-87.7121 518.725 -87.4756 510.596 -87.4534 461.8C-87.4301 410.625 -87.5948 405.341 -89.397 399.436C-90.48 395.888 -92.8202 390.7 -94.5974 387.907C-96.3746 385.114 -99.5784 381.293 -101.717 379.415C-103.855 377.538 -108.773 374.5 -112.645 372.666C-119.135 369.59 -120.567 369.33 -130.975 369.339C-140.927 369.347 -142.988 369.686 -148.367 372.2C-151.723 373.768 -156.735 377.139 -159.504 379.692C-162.274 382.245 -166.04 386.514 -167.874 389.179L-171.207 394.024L-172.093 389.759C-172.616 387.246 -172.525 383.375 -171.873 380.333C-171.264 377.495 -169.794 373.266 -168.605 370.937C-167.417 368.607 -164.982 365.036 -163.196 363.001C-161.409 360.966 -157.548 357.761 -154.615 355.88C-151.683 353.998 -145.769 351.203 -141.473 349.67C-134.691 347.248 -131.893 346.875 -120.223 346.836C-110.907 346.804 -104.204 347.389 -98.3803 348.74C-93.7593 349.813 -89.2363 350.405 -88.3292 350.057C-86.8676 349.496 -86.7379 343.159 -87.1894 294.325C-87.6152 248.265 -87.9919 237.903 -89.4855 231.162C-90.4683 226.727 -93.0279 219.469 -95.1736 215.034C-97.9014 209.395 -101.205 204.843 -106.154 199.902C-110.224 195.838 -115.747 191.625 -119.147 189.989C-122.4 188.423 -127.945 186.402 -131.47 185.497C-134.994 184.592 -141.042 183.859 -144.91 183.868C-148.778 183.876 -155.087 184.622 -158.931 185.526C-162.775 186.429 -169.203 188.679 -173.216 190.525C-178.595 193 -180.828 193.566 -181.715 192.68C-182.601 191.794 -182.143 190.463 -179.974 187.619C-178.355 185.496 -174.531 181.769 -171.475 179.336C-168.42 176.902 -161.081 172.589 -155.168 169.751C-149.254 166.913 -140.303 163.582 -135.276 162.349C-130.249 161.116 -120.778 159.818 -114.23 159.464C-105.392 158.986 -99.434 159.304 -91.1123 160.695C-84.9462 161.726 -75.5466 164.027 -70.2242 165.809C-64.9018 167.592 -56.3832 171.14 -51.2941 173.695L-42.0412 178.341L-34.0904 176.247C-29.7174 175.095 -17.1793 172.489 -6.22775 170.455C4.72372 168.422 22.6263 165.685 33.5558 164.373C49.6254 162.445 59.4968 161.971 85.1471 161.899C106.068 161.84 120.344 162.294 127.081 163.232C132.699 164.014 142.86 165.873 149.661 167.363C156.462 168.853 166.623 171.781 172.241 173.87C177.859 175.959 185.151 179.022 188.445 180.678C191.74 182.333 198.773 186.59 204.075 190.136C209.505 193.768 217.579 200.609 222.564 205.801C227.43 210.87 233.667 218.503 236.422 222.763C239.178 227.023 242.98 234.176 244.871 238.659C246.761 243.142 249.377 250.909 250.684 255.921C252.303 262.13 253.244 269.655 253.638 279.548C254.079 290.635 253.785 296.348 252.395 303.74C251.393 309.063 249.328 316.538 247.806 320.353C246.283 324.167 243.341 330.215 241.267 333.793C239.194 337.371 233.563 344.169 228.755 348.9C223.946 353.631 217.261 359.125 213.899 361.109C210.537 363.093 204.851 365.901 201.264 367.35C197.678 368.799 191.279 370.864 187.046 371.939L179.348 373.894L185.741 375.743C189.256 376.76 195.407 378.981 199.41 380.679C203.412 382.376 209.944 385.878 213.925 388.461C217.907 391.043 223.977 395.735 227.415 398.886C230.853 402.037 235.843 407.445 238.504 410.903C241.166 414.362 245.461 421.18 248.049 426.055C250.636 430.93 254.005 439.251 255.535 444.545C257.065 449.839 258.843 459.01 259.486 464.924C260.351 472.873 260.329 478.583 259.402 486.821C258.712 492.95 256.961 502.062 255.51 507.069C254.059 512.076 251.456 519.295 249.725 523.112C247.995 526.928 244.069 533.681 241.002 538.118C237.935 542.555 232.131 549.292 228.106 553.09C224.08 556.888 217.968 561.908 214.524 564.246C211.079 566.584 203.907 570.683 198.584 573.354C193.262 576.025 184.552 579.669 179.23 581.45C173.908 583.231 163.989 585.921 157.188 587.426C150.387 588.931 138.29 591.034 130.307 592.099C118.76 593.639 108.314 594.037 79.2333 594.044C56.4838 594.049 38.2079 593.536 30.8478 592.684C24.3426 591.931 13.6978 590.572 7.19263 589.663C0.687469 588.755 -13.2685 586.298 -23.8207 584.203L-43.0064 580.394L-52.852 584.703C-58.267 587.072 -65.9392 590.001 -69.9013 591.212C-73.8633 592.422 -81.0536 594.161 -85.8797 595.077C-90.8387 596.018 -99.863 596.698 -106.632 596.64ZM62.9668 567.538C74.6792 567.649 85.0854 567.12 92.3325 566.043C98.506 565.127 107.738 563.165 112.847 561.685C117.956 560.204 125.789 557.081 130.254 554.744C134.718 552.407 141.144 548.046 144.532 545.054C147.921 542.062 153.29 535.654 156.463 530.813C159.637 525.973 163.522 518.868 165.096 515.024C166.671 511.18 168.954 504.164 170.17 499.433C171.586 493.923 172.603 485.586 173 476.239C173.392 467.027 173.134 458.325 172.302 452.635C171.577 447.678 169.638 439.617 167.994 434.722C166.349 429.827 163.366 423.047 161.364 419.654C159.363 416.262 154.338 410.071 150.199 405.898C144.952 400.607 140.067 396.96 134.07 393.854C129.339 391.404 121.356 388.325 116.329 387.013C109.412 385.207 102.978 384.498 89.8742 384.1C77.7539 383.732 71.3551 383.972 68.5461 384.899C66.339 385.627 62.9154 387.644 60.9381 389.38C58.9608 391.116 56.0793 394.693 54.5348 397.328C52.9902 399.964 50.0827 407.138 48.0735 413.272C46.0643 419.405 43.1866 430.752 41.6785 438.486C40.1704 446.22 38.1935 458.743 37.2852 466.313C36.377 473.884 35.2572 485.885 34.7968 492.981L33.9597 505.884L33.1571 497.282C32.7157 492.551 31.6288 481.974 30.7417 473.776C29.8546 465.579 28.3781 454.45 27.4606 449.046C26.5431 443.642 24.3713 433.673 22.6345 426.893C20.8977 420.114 17.3516 410.081 14.7542 404.598C11.6804 398.109 8.11798 392.605 4.5495 388.832C1.26987 385.364 -3.62064 381.712 -7.62247 379.743C-11.3017 377.933 -16.7313 375.843 -19.6882 375.099C-22.6451 374.355 -25.4573 373.424 -25.9377 373.03C-26.418 372.636 -24.7245 371.984 -22.1743 371.58C-19.6242 371.177 -13.5923 368.942 -8.77014 366.613C-2.12573 363.404 1.34332 360.877 5.55524 356.177C8.61203 352.766 12.978 346.104 15.2574 341.373C17.5368 336.642 20.4223 329.626 21.6696 325.783C22.917 321.939 25.1093 312.987 26.5415 305.891C27.9738 298.794 29.8745 285.73 30.7655 276.859C31.6564 267.989 32.7397 255.892 33.1728 249.979L33.9602 239.226L34.7734 251.054C35.2207 257.559 36.1125 267.72 36.7553 273.634C37.3981 279.548 38.8879 289.95 40.066 296.751C41.2441 303.552 43.4467 313.713 44.9607 319.331C46.4747 324.949 49.2816 332.933 51.1983 337.073C53.1151 341.212 56.0341 346.193 57.6852 348.141C59.3363 350.089 62.6827 352.75 65.1217 354.055C69.2297 356.252 70.9417 356.421 88.3728 356.346C103.595 356.282 109.109 355.824 117.239 353.952C122.767 352.679 130.866 349.918 135.236 347.816C140.026 345.512 145.461 341.764 148.916 338.382C152.069 335.296 156.375 329.626 158.484 325.783C160.593 321.939 163.311 315.648 164.523 311.805C165.735 307.961 167.323 301.912 168.052 298.364C168.781 294.816 169.353 285.381 169.324 277.397C169.29 267.977 168.627 259.862 167.436 254.28C166.426 249.549 164.199 242.049 162.486 237.613C160.773 233.178 157.45 226.615 155.101 223.029C152.752 219.443 148.268 213.927 145.138 210.771C142.008 207.614 136.209 202.923 132.252 200.345C128.295 197.767 122.731 194.659 119.887 193.438C117.043 192.217 110.603 190.021 105.577 188.556C100.55 187.092 91.5985 185.202 85.6847 184.355C79.3683 183.451 66.504 182.816 54.5029 182.816C42.3955 182.816 29.5965 183.452 23.083 184.378C17.0383 185.238 8.11023 186.958 3.24301 188.2C-1.62424 189.443 -6.4678 190.921 -7.52048 191.484C-9.32629 192.451 -9.45071 197.185 -9.72272 275.25L-10.0111 357.991L-12.8311 360.811C-14.3822 362.362 -20.7689 365.688 -27.0238 368.202L-38.3963 372.773L-27.967 376.878C-20.7834 379.705 -16.2829 382.225 -13.5056 384.976L-9.47348 388.968V466.009C-9.47348 528.804 -9.20114 543.701 -8.00055 546.574C-7.19043 548.513 -4.43011 551.895 -1.86658 554.089C1.20944 556.722 5.59921 558.965 11.0428 560.684C15.5794 562.117 23.343 564.026 28.2952 564.925C33.2474 565.824 38.9927 566.741 41.0625 566.963C43.1323 567.185 52.9892 567.443 62.9668 567.538Z" fill="#1D7F8A" fill-opacity="0.25"/>
<path fill-rule="evenodd" clip-rule="evenodd" d="M33.3958 760.675C33.1338 760.938 31.587 757.662 29.9586 753.397C28.3302 749.132 25.1676 742.26 22.9305 738.125L18.863 730.608L12.4902 729.92C8.98514 729.542 0.795013 728.662 -5.71017 727.966C-12.2153 727.269 -23.5859 725.509 -30.9781 724.055C-38.3704 722.601 -51.3318 719.465 -59.7812 717.087C-68.2307 714.709 -81.0529 710.584 -88.2749 707.92C-95.497 705.256 -110.599 698.552 -121.835 693.021C-133.959 687.054 -148.822 678.634 -158.393 672.311C-167.264 666.451 -179.602 657.601 -185.812 652.645C-192.021 647.689 -205.331 635.381 -215.389 625.295C-225.447 615.209 -237.986 601.392 -243.254 594.591C-248.522 587.79 -256.467 576.673 -260.91 569.886C-265.353 563.099 -272.262 551.539 -276.264 544.197C-280.265 536.855 -285.946 525.231 -288.887 518.366C-291.828 511.501 -296.244 500.078 -298.7 492.981C-301.156 485.885 -304.806 473.717 -306.812 465.941C-308.818 458.165 -311.424 446.246 -312.604 439.453C-313.783 432.66 -315.281 421.604 -315.931 414.882C-316.582 408.161 -317.366 400.554 -317.673 397.978L-318.231 393.294L-329.17 388.174C-335.186 385.358 -343.459 381.954 -347.554 380.611L-355 378.168L-346.479 375.086C-341.792 373.391 -333.361 369.709 -327.743 366.904L-317.528 361.803L-316.239 347.308C-315.53 339.336 -314.156 327.966 -313.187 322.04C-312.218 316.115 -310.293 306.186 -308.91 299.977C-307.526 293.767 -304.637 282.913 -302.489 275.855C-300.341 268.797 -296.38 257.427 -293.686 250.587C-290.992 243.747 -285.243 231.135 -280.911 222.56C-276.579 213.985 -269.55 201.405 -265.291 194.604C-261.033 187.803 -254.157 177.642 -250.012 172.024C-245.868 166.406 -238.315 156.975 -233.23 151.066C-228.144 145.157 -219.386 135.758 -213.768 130.179C-208.15 124.6 -199.44 116.609 -194.414 112.422C-189.387 108.234 -180.162 101.083 -173.913 96.5313C-167.664 91.9793 -156.777 84.8042 -149.72 80.5867C-142.663 76.3691 -131.082 70.0988 -123.986 66.6527C-116.889 63.2067 -107.212 58.8344 -102.481 56.9366C-97.7502 55.0388 -88.315 51.573 -81.5141 49.2348C-74.7133 46.8966 -62.787 43.3447 -55.0113 41.3416C-47.2356 39.3386 -35.1393 36.7011 -28.1305 35.4807C-21.1217 34.2603 -9.33908 32.7546 -1.94684 32.1348C5.44537 31.515 13.0613 30.7811 14.9774 30.5039C18.0082 30.0654 19.0216 28.9923 22.7709 22.2512C25.1412 17.9894 28.412 11.2424 30.0394 7.25787C31.6668 3.27336 33.3611 0.00733402 33.8047 4.68271e-05C34.2482 -0.00724037 34.6111 0.836931 34.6111 1.876C34.6111 2.91506 36.9846 8.60036 39.8856 14.51C42.7866 20.4196 46.149 26.5095 47.3576 28.043C49.4446 30.691 50.2198 30.8663 62.7813 31.5307C70.0558 31.9155 82.2977 33.209 89.9856 34.4052C97.6736 35.6014 110.898 38.2894 119.374 40.3785C127.849 42.4676 141.397 46.3834 149.48 49.0803C157.563 51.7772 170.569 56.812 178.381 60.2688C186.194 63.7256 197.913 69.4614 204.425 73.0152C210.936 76.569 220.995 82.4537 226.778 86.0924C232.561 89.7311 242.643 96.723 249.183 101.63C255.723 106.537 265.642 114.63 271.226 119.613C276.809 124.597 286.155 133.665 291.995 139.764C297.834 145.863 306.708 155.98 311.714 162.245C316.72 168.511 324.816 179.685 329.706 187.077C334.596 194.47 341.393 205.598 344.81 211.808C348.227 218.017 352.69 226.727 354.728 231.162C356.767 235.597 360.272 243.823 362.518 249.441C364.764 255.059 368.374 265.155 370.54 271.877C372.706 278.599 375.672 289.002 377.132 294.995C378.591 300.988 380.74 311.355 381.907 318.033C383.074 324.711 384.547 335.84 385.18 342.763C385.813 349.687 386.569 356.929 386.86 358.858C387.328 361.958 388.289 362.822 395.134 366.303C399.394 368.469 407.406 372.012 412.939 374.175L423 378.109L414.552 381.105C409.906 382.752 401.894 386.214 396.748 388.796C388.27 393.051 387.341 393.822 386.861 397.002C386.57 398.932 385.807 406.238 385.166 413.237C384.526 420.236 382.794 432.574 381.318 440.655C379.843 448.736 376.906 461.638 374.794 469.326C372.681 477.014 368.83 489.175 366.235 496.351C363.641 503.527 358.902 515.18 355.705 522.248C352.508 529.315 346.451 541.245 342.245 548.76C338.038 556.275 331.61 566.879 327.96 572.325C324.31 577.77 317.839 586.841 313.58 592.481C309.322 598.122 301.238 607.83 295.617 614.054C289.997 620.279 280.589 629.821 274.711 635.257C268.833 640.694 259.461 648.783 253.884 653.232C248.307 657.68 239.631 664.149 234.605 667.607C229.578 671.064 220.924 676.643 215.375 680.004C209.825 683.365 199.18 689.163 191.719 692.887C184.259 696.612 172.067 702.125 164.626 705.139C157.185 708.153 144.605 712.568 136.67 714.95C128.735 717.332 116.92 720.468 110.415 721.918C103.91 723.368 92.0555 725.514 84.0718 726.686C76.0882 727.859 64.8333 729.145 59.061 729.545L48.5658 730.273L44.2879 737.598C41.9351 741.626 38.629 748.359 36.9411 752.561C35.2532 756.762 33.6579 760.413 33.3958 760.675ZM16.4604 695.475C18.9348 695.64 19.6188 694.874 22.0937 689.168C23.6431 685.595 25.9011 678.793 27.1117 674.052C28.3223 669.31 30.0159 658.806 30.8752 650.709C31.7346 642.612 32.4428 632.238 32.4492 627.654C32.4555 623.071 32.8741 619.321 33.3795 619.321C33.8849 619.321 34.6367 625.974 35.0502 634.106C35.4637 642.237 36.5338 654.186 37.4282 660.658C38.3226 667.131 40.4616 676.82 42.1816 682.189C43.9016 687.558 45.9259 692.755 46.6802 693.737C47.9051 695.333 49.4864 695.416 61.4919 694.513C68.8842 693.958 80.7386 692.529 87.8352 691.339C94.9317 690.148 107.059 687.514 114.784 685.484C122.51 683.454 134.122 679.887 140.59 677.557C147.057 675.226 156.462 671.545 161.489 669.377C166.515 667.208 176.193 662.496 182.993 658.905C189.794 655.313 201.407 648.415 208.799 643.575C216.191 638.736 227.32 630.702 233.529 625.723C239.739 620.743 251.114 610.371 258.808 602.673C266.502 594.975 276.663 583.845 281.388 577.939C286.113 572.033 294.34 560.663 299.67 552.671C305 544.68 313.054 530.883 317.567 522.013C322.08 513.142 327.959 500.32 330.632 493.519C333.305 486.718 337.245 475.121 339.387 467.749C341.529 460.376 344.47 448.521 345.923 441.405C347.376 434.29 349.362 421.373 350.336 412.702C351.311 404.032 351.831 396.217 351.494 395.337C351.156 394.457 347.046 392.258 342.361 390.451C337.676 388.644 330.299 386.184 325.968 384.984C321.637 383.784 313.219 382.088 307.262 381.215C301.305 380.342 292.439 379.541 287.56 379.435C282.681 379.328 278.689 378.898 278.689 378.479C278.689 378.06 283.407 377.404 289.173 377.022C294.939 376.64 303.536 375.642 308.277 374.805C313.019 373.967 320.034 372.469 323.868 371.475C327.701 370.482 335.36 367.939 340.887 365.823C346.414 363.708 351.205 361.278 351.533 360.424C351.861 359.569 351.552 353.55 350.847 347.048C350.142 340.546 348.847 331.044 347.969 325.934C347.092 320.824 344.973 310.837 343.261 303.74C341.548 296.644 338.38 285.556 336.22 279.1C334.06 272.645 330.582 263.21 328.491 258.133C326.4 253.057 321.618 242.855 317.864 235.463C314.111 228.071 308.303 217.668 304.958 212.345C301.612 207.023 294.863 197.346 289.959 190.841C285.056 184.336 276.669 174.179 271.323 168.271C265.976 162.363 256.858 153.261 251.06 148.044C245.262 142.827 235.157 134.499 228.604 129.537C222.051 124.575 211.406 117.301 204.949 113.371C198.491 109.442 188.026 103.619 181.692 100.43C175.359 97.2415 165.924 92.8631 160.725 90.7004C155.527 88.5378 144.984 84.6299 137.296 82.0164C129.608 79.4028 117.451 75.8522 110.28 74.1262C103.108 72.4001 91.254 70.0394 83.9363 68.8801C76.6186 67.7208 67.2444 66.4866 63.1048 66.1374C58.9651 65.7882 53.5897 65.2576 51.1594 64.9584C46.7439 64.4147 46.739 64.4182 44.4827 69.6631C43.2408 72.5499 41.2549 78.4965 40.0695 82.8779C38.8841 87.2593 37.41 94.9568 36.7938 99.9835C36.1776 105.01 35.3599 115.292 34.9767 122.832C34.5934 130.372 33.8706 136.541 33.3703 136.541C32.87 136.541 32.4555 133.275 32.4492 129.284C32.4428 125.292 31.7194 115.257 30.8416 106.984C29.9637 98.7117 28.2242 87.8667 26.976 82.8844C25.7278 77.902 23.8047 71.7216 22.7024 69.15L20.6982 64.4744L14.483 65.0806C11.0647 65.414 1.97775 66.4192 -5.71017 67.3142C-13.3981 68.2093 -26.2202 70.3663 -34.2039 72.1077C-42.1875 73.849 -53.3161 76.664 -58.9342 78.3632C-64.5523 80.0624 -73.9875 83.233 -79.9013 85.4088C-85.8151 87.5847 -99.363 93.6544 -110.008 98.897C-120.653 104.14 -135.588 112.57 -143.197 117.63C-150.806 122.691 -161.692 130.541 -167.389 135.076C-173.086 139.61 -184.074 149.658 -191.806 157.403C-199.538 165.149 -209.813 176.463 -214.64 182.545C-219.466 188.626 -226.997 199.029 -231.374 205.662C-235.75 212.295 -242.012 222.633 -245.287 228.637C-248.563 234.64 -253.669 245.043 -256.633 251.754C-259.598 258.465 -264.163 270.247 -266.779 277.935C-269.394 285.623 -272.8 297.235 -274.348 303.74C-275.895 310.245 -278.14 321.308 -279.337 328.324C-280.534 335.34 -281.821 345.778 -282.197 351.519L-282.881 361.959L-272.248 365.917C-266.4 368.093 -257.866 370.821 -253.284 371.977C-248.701 373.133 -239.93 374.825 -233.792 375.737C-227.654 376.648 -219.79 377.401 -216.318 377.41C-211.845 377.422 -210.475 377.731 -211.617 378.469C-212.504 379.042 -216.375 379.522 -220.219 379.534C-224.063 379.547 -232.047 380.283 -237.961 381.17C-243.874 382.056 -252.451 383.747 -257.019 384.927C-261.587 386.107 -269.087 388.559 -273.685 390.377C-278.283 392.195 -282.44 394.065 -282.922 394.533C-283.404 395 -283.267 400.407 -282.617 406.549C-281.968 412.69 -280.468 423.521 -279.283 430.618C-278.098 437.714 -275.448 449.954 -273.393 457.816C-271.338 465.679 -267.459 478.259 -264.771 485.772C-262.084 493.285 -255.834 507.672 -250.882 517.742C-245.721 528.238 -237.312 542.922 -231.177 552.15C-225.29 561.004 -215.41 574.296 -209.22 581.688C-203.03 589.08 -192.779 600.08 -186.441 606.131C-180.103 612.183 -169.989 621.104 -163.967 625.955C-157.945 630.807 -146.485 639.076 -138.502 644.331C-130.518 649.586 -115.76 657.937 -105.707 662.888C-95.6534 667.839 -81.1378 674.142 -73.4499 676.894C-65.762 679.647 -52.1385 683.771 -43.1757 686.059C-34.2128 688.348 -19.939 691.197 -11.4563 692.392C-2.97351 693.586 6.14429 694.727 8.80548 694.925C11.4667 695.124 14.9114 695.372 16.4604 695.475ZM-106.632 596.64C-113.22 596.585 -121.755 595.909 -125.599 595.138C-129.443 594.367 -135.733 592.683 -139.577 591.397C-143.421 590.11 -150.053 587.188 -154.316 584.904C-158.579 582.62 -164.75 578.725 -168.03 576.248C-171.31 573.772 -175.433 569.788 -177.194 567.394C-179.523 564.226 -180.089 562.674 -179.271 561.689C-178.382 560.618 -177.436 560.754 -174.722 562.341C-172.838 563.444 -167.667 565.552 -163.232 567.025C-158.797 568.499 -151.781 570.028 -147.641 570.424C-143.209 570.848 -137.24 570.628 -133.125 569.888C-129.281 569.197 -122.738 567.007 -118.585 565.022C-113.227 562.461 -109.083 559.381 -104.313 554.414C-100.189 550.119 -96.3466 544.753 -94.3688 540.526C-92.5959 536.738 -90.3204 530.055 -89.3121 525.675C-87.7121 518.725 -87.4756 510.596 -87.4534 461.8C-87.4301 410.625 -87.5948 405.341 -89.397 399.436C-90.48 395.888 -92.8202 390.7 -94.5974 387.907C-96.3746 385.114 -99.5784 381.293 -101.717 379.415C-103.855 377.538 -108.773 374.5 -112.645 372.666C-119.135 369.59 -120.567 369.33 -130.975 369.339C-140.927 369.347 -142.988 369.686 -148.367 372.2C-151.723 373.768 -156.735 377.139 -159.504 379.692C-162.274 382.245 -166.04 386.514 -167.874 389.179L-171.207 394.024L-172.093 389.759C-172.616 387.246 -172.525 383.375 -171.873 380.333C-171.264 377.495 -169.794 373.266 -168.605 370.937C-167.417 368.607 -164.982 365.036 -163.196 363.001C-161.409 360.966 -157.548 357.761 -154.615 355.88C-151.683 353.998 -145.769 351.203 -141.473 349.67C-134.691 347.248 -131.893 346.875 -120.223 346.836C-110.907 346.804 -104.204 347.389 -98.3803 348.74C-93.7593 349.813 -89.2363 350.405 -88.3292 350.057C-86.8676 349.496 -86.7379 343.159 -87.1894 294.325C-87.6152 248.265 -87.9919 237.903 -89.4855 231.162C-90.4683 226.727 -93.0279 219.469 -95.1736 215.034C-97.9014 209.395 -101.205 204.843 -106.154 199.902C-110.224 195.838 -115.747 191.625 -119.147 189.989C-122.4 188.423 -127.945 186.402 -131.47 185.497C-134.994 184.592 -141.042 183.859 -144.91 183.868C-148.778 183.876 -155.087 184.622 -158.931 185.526C-162.775 186.429 -169.203 188.679 -173.216 190.525C-178.595 193 -180.828 193.566 -181.715 192.68C-182.601 191.794 -182.143 190.463 -179.974 187.619C-178.355 185.496 -174.531 181.769 -171.475 179.336C-168.42 176.902 -161.081 172.589 -155.168 169.751C-149.254 166.913 -140.303 163.582 -135.276 162.349C-130.249 161.116 -120.778 159.818 -114.23 159.464C-105.392 158.986 -99.434 159.304 -91.1123 160.695C-84.9462 161.726 -75.5466 164.027 -70.2242 165.809C-64.9018 167.592 -56.3832 171.14 -51.2941 173.695L-42.0412 178.341L-34.0904 176.247C-29.7174 175.095 -17.1793 172.489 -6.22775 170.455C4.72372 168.422 22.6263 165.685 33.5558 164.373C49.6254 162.445 59.4968 161.971 85.1471 161.899C106.068 161.84 120.344 162.294 127.081 163.232C132.699 164.014 142.86 165.873 149.661 167.363C156.462 168.853 166.623 171.781 172.241 173.87C177.859 175.959 185.151 179.022 188.445 180.678C191.74 182.333 198.773 186.59 204.075 190.136C209.505 193.768 217.579 200.609 222.564 205.801C227.43 210.87 233.667 218.503 236.422 222.763C239.178 227.023 242.98 234.176 244.871 238.659C246.761 243.142 249.377 250.909 250.684 255.921C252.303 262.13 253.244 269.655 253.638 279.548C254.079 290.635 253.785 296.348 252.395 303.74C251.393 309.063 249.328 316.538 247.806 320.353C246.283 324.167 243.341 330.215 241.267 333.793C239.194 337.371 233.563 344.169 228.755 348.9C223.946 353.631 217.261 359.125 213.899 361.109C210.537 363.093 204.851 365.901 201.264 367.35C197.678 368.799 191.279 370.864 187.046 371.939L179.348 373.894L185.741 375.743C189.256 376.76 195.407 378.981 199.41 380.679C203.412 382.376 209.944 385.878 213.925 388.461C217.907 391.043 223.977 395.735 227.415 398.886C230.853 402.037 235.843 407.445 238.504 410.903C241.166 414.362 245.461 421.18 248.049 426.055C250.636 430.93 254.005 439.251 255.535 444.545C257.065 449.839 258.843 459.01 259.486 464.924C260.351 472.873 260.329 478.583 259.402 486.821C258.712 492.95 256.961 502.062 255.51 507.069C254.059 512.076 251.456 519.295 249.725 523.112C247.995 526.928 244.069 533.681 241.002 538.118C237.935 542.555 232.131 549.292 228.106 553.09C224.08 556.888 217.968 561.908 214.524 564.246C211.079 566.584 203.907 570.683 198.584 573.354C193.262 576.025 184.552 579.669 179.23 581.45C173.908 583.231 163.989 585.921 157.188 587.426C150.387 588.931 138.29 591.034 130.307 592.099C118.76 593.639 108.314 594.037 79.2333 594.044C56.4838 594.049 38.2079 593.536 30.8478 592.684C24.3426 591.931 13.6978 590.572 7.19263 589.663C0.687469 588.755 -13.2685 586.298 -23.8207 584.203L-43.0064 580.394L-52.852 584.703C-58.267 587.072 -65.9392 590.001 -69.9013 591.212C-73.8633 592.422 -81.0536 594.161 -85.8797 595.077C-90.8387 596.018 -99.863 596.698 -106.632 596.64ZM62.9668 567.538C74.6792 567.649 85.0854 567.12 92.3325 566.043C98.506 565.127 107.738 563.165 112.847 561.685C117.956 560.204 125.789 557.081 130.254 554.744C134.718 552.407 141.144 548.046 144.532 545.054C147.921 542.062 153.29 535.654 156.463 530.813C159.637 525.973 163.522 518.868 165.096 515.024C166.671 511.18 168.954 504.164 170.17 499.433C171.586 493.923 172.603 485.586 173 476.239C173.392 467.027 173.134 458.325 172.302 452.635C171.577 447.678 169.638 439.617 167.994 434.722C166.349 429.827 163.366 423.047 161.364 419.654C159.363 416.262 154.338 410.071 150.199 405.898C144.952 400.607 140.067 396.96 134.07 393.854C129.339 391.404 121.356 388.325 116.329 387.013C109.412 385.207 102.978 384.498 89.8742 384.1C77.7539 383.732 71.3551 383.972 68.5461 384.899C66.339 385.627 62.9154 387.644 60.9381 389.38C58.9608 391.116 56.0793 394.693 54.5348 397.328C52.9902 399.964 50.0827 407.138 48.0735 413.272C46.0643 419.405 43.1866 430.752 41.6785 438.486C40.1704 446.22 38.1935 458.743 37.2852 466.313C36.377 473.884 35.2572 485.885 34.7968 492.981L33.9597 505.884L33.1571 497.282C32.7157 492.551 31.6288 481.974 30.7417 473.776C29.8546 465.579 28.3781 454.45 27.4606 449.046C26.5431 443.642 24.3713 433.673 22.6345 426.893C20.8977 420.114 17.3516 410.081 14.7542 404.598C11.6804 398.109 8.11798 392.605 4.5495 388.832C1.26987 385.364 -3.62064 381.712 -7.62247 379.743C-11.3017 377.933 -16.7313 375.843 -19.6882 375.099C-22.6451 374.355 -25.4573 373.424 -25.9377 373.03C-26.418 372.636 -24.7245 371.984 -22.1743 371.58C-19.6242 371.177 -13.5923 368.942 -8.77014 366.613C-2.12573 363.404 1.34332 360.877 5.55524 356.177C8.61203 352.766 12.978 346.104 15.2574 341.373C17.5368 336.642 20.4223 329.626 21.6696 325.783C22.917 321.939 25.1093 312.987 26.5415 305.891C27.9738 298.794 29.8745 285.73 30.7655 276.859C31.6564 267.989 32.7397 255.892 33.1728 249.979L33.9602 239.226L34.7734 251.054C35.2207 257.559 36.1125 267.72 36.7553 273.634C37.3981 279.548 38.8879 289.95 40.066 296.751C41.2441 303.552 43.4467 313.713 44.9607 319.331C46.4747 324.949 49.2816 332.933 51.1983 337.073C53.1151 341.212 56.0341 346.193 57.6852 348.141C59.3363 350.089 62.6827 352.75 65.1217 354.055C69.2297 356.252 70.9417 356.421 88.3728 356.346C103.595 356.282 109.109 355.824 117.239 353.952C122.767 352.679 130.866 349.918 135.236 347.816C140.026 345.512 145.461 341.764 148.916 338.382C152.069 335.296 156.375 329.626 158.484 325.783C160.593 321.939 163.311 315.648 164.523 311.805C165.735 307.961 167.323 301.912 168.052 298.364C168.781 294.816 169.353 285.381 169.324 277.397C169.29 267.977 168.627 259.862 167.436 254.28C166.426 249.549 164.199 242.049 162.486 237.613C160.773 233.178 157.45 226.615 155.101 223.029C152.752 219.443 148.268 213.927 145.138 210.771C142.008 207.614 136.209 202.923 132.252 200.345C128.295 197.767 122.731 194.659 119.887 193.438C117.043 192.217 110.603 190.021 105.577 188.556C100.55 187.092 91.5985 185.202 85.6847 184.355C79.3683 183.451 66.504 182.816 54.5029 182.816C42.3955 182.816 29.5965 183.452 23.083 184.378C17.0383 185.238 8.11023 186.958 3.24301 188.2C-1.62424 189.443 -6.4678 190.921 -7.52048 191.484C-9.32629 192.451 -9.45071 197.185 -9.72272 275.25L-10.0111 357.991L-12.8311 360.811C-14.3822 362.362 -20.7689 365.688 -27.0238 368.202L-38.3963 372.773L-27.967 376.878C-20.7834 379.705 -16.2829 382.225 -13.5056 384.976L-9.47348 388.968V466.009C-9.47348 528.804 -9.20114 543.701 -8.00055 546.574C-7.19043 548.513 -4.43011 551.895 -1.86658 554.089C1.20944 556.722 5.59921 558.965 11.0428 560.684C15.5794 562.117 23.343 564.026 28.2952 564.925C33.2474 565.824 38.9927 566.741 41.0625 566.963C43.1323 567.185 52.9892 567.443 62.9668 567.538Z" fill="url(#paint0_linear_5_50)" fill-opacity="0.58"/>
<defs>
<linearGradient id="paint0_linear_5_50" x1="34" y1="0" x2="34" y2="760.69" gradientUnits="userSpaceOnUse">
<stop stop-opacity="0"/>
<stop offset="1"/>
</linearGradient>
</defs>
</svg>
